<?xml version="1.0" encoding="UTF-8"?>
<svg version="1.1" xmlns="http://www.w3.org/2000/svg" width="225" height="225">
<path d="M0 0 C74.25 0 148.5 0 225 0 C225 74.25 225 148.5 225 225 C150.75 225 76.5 225 0 225 C0 150.75 0 76.5 0 0 Z " fill="#3B85FD" transform="translate(0,0)"/>
<path d="M0 0 C3.82809915 1.23795391 7.14391243 2.49655765 10.5625 4.625 C11.85220703 5.41970703 11.85220703 5.41970703 13.16796875 6.23046875 C14.10253906 6.81441406 15.03710938 7.39835937 16 8 C18.12412338 9.31391823 20.24916349 10.62635532 22.375 11.9375 C23.47585937 12.61683594 24.57671875 13.29617187 25.7109375 13.99609375 C28.78637826 15.86984804 31.88372142 17.69518958 35 19.5 C35.97453125 20.06976563 36.9490625 20.63953125 37.953125 21.2265625 C40.08034416 22.46471314 42.21655162 23.68749312 44.359375 24.8984375 C53.57518153 30.27078555 61.84863724 36.33010441 65 47 C65.41150753 50.66553738 65.37982317 54.29892566 65.34057617 57.98413086 C65.34123329 59.60963364 65.34123329 59.60963364 65.34190369 61.26797485 C65.3398212 64.83378396 65.3165149 68.39911723 65.29296875 71.96484375 C65.2873709 74.44348392 65.28310169 76.92212742 65.28010559 79.40077209 C65.26867183 85.91262028 65.23921696 92.42426654 65.20599365 98.93603516 C65.17363204 105.58557322 65.16159346 112.23517022 65.14648438 118.88476562 C65.11434613 131.92326304 65.06374701 144.96162076 65 158 C61.8663237 156.77488301 59.06470706 155.53389972 56.25 153.6875 C53.42197409 151.8762924 50.57053539 150.1757791 47.625 148.5625 C46.5743335 147.95015503 46.5743335 147.95015503 45.50244141 147.32543945 C43.04224388 145.93295176 43.04224388 145.93295176 40.3828125 145.13598633 C37.08938423 143.81757666 35.30853974 142.72805548 33 140 C31.25351167 133.62481989 32.06907366 126.64988937 32.375 120.125 C32.42518777 118.27355684 32.47081049 116.42198393 32.51171875 114.5703125 C32.62166542 110.04366577 32.79402308 105.52325316 33 101 C32.071875 100.71125 31.14375 100.4225 30.1875 100.125 C27 99 27 99 24 97 C24 109.21 24 121.42 24 134 C11.81507077 127.90753539 5.61239788 123.95486659 0.86060333 111.81683731 C-0.5618838 107.16090041 -0.52481072 102.69347693 -0.45410156 97.85888672 C-0.45468567 96.79428726 -0.45526978 95.72968781 -0.45587158 94.63282776 C-0.45310656 91.14810462 -0.42208876 87.66425941 -0.390625 84.1796875 C-0.38315701 81.75017768 -0.37746671 79.32066181 -0.37347412 76.8911438 C-0.35826194 70.52228931 -0.31901787 64.15380448 -0.2746582 57.78509521 C-0.23361027 51.27605183 -0.21544278 44.76694824 -0.1953125 38.2578125 C-0.15251962 25.50505138 -0.08509958 12.75254543 0 0 Z " fill="#FAFCFC" transform="translate(46,39)"/>
<path d="M0 0 C3.49879974 34.73109253 3.49879974 34.73109253 -2.0625 43.10595703 C-7.17602228 47.59455667 -13.03444803 50.0036542 -19.44628906 52.10351562 C-23.31271935 53.46083226 -27.1018432 55.20368641 -29 59 C-29.15691907 61.76931368 -29.25843134 64.51734107 -29.31640625 67.2890625 C-29.33718735 68.10748627 -29.35796844 68.92591003 -29.37937927 69.76913452 C-29.44484812 72.38766966 -29.50374726 75.00630639 -29.5625 77.625 C-29.60568776 79.39844807 -29.64930214 81.17188581 -29.69335938 82.9453125 C-29.80052676 87.29677046 -29.90180169 91.64833077 -30 96 C-28.71521741 95.36507092 -27.43128094 94.72842953 -26.14770508 94.09106445 C-25.43262283 93.73671829 -24.71754059 93.38237213 -23.98078918 93.01728821 C-21.76816633 91.88093551 -19.72917076 90.60725902 -17.6875 89.1875 C-14.17109856 86.79218125 -10.6361914 84.43436977 -7.0625 82.125 C-5.68771484 81.23167969 -5.68771484 81.23167969 -4.28515625 80.3203125 C-2 79 -2 79 0 79 C0.07493036 82.96516109 0.12896449 86.93004014 0.16479492 90.89575195 C0.18705458 92.89744576 0.22520146 94.89894275 0.26367188 96.90039062 C0.34402196 107.53338483 -0.85501284 115.48567344 -7.73046875 123.80859375 C-11.64881343 127.59205565 -16.22757348 130.20214135 -20.95874023 132.85009766 C-28.02977611 136.8334225 -35.00264811 140.99153448 -41.97265625 145.1484375 C-42.55500534 145.49544708 -43.13735443 145.84245667 -43.73735046 146.19998169 C-46.12490376 147.62281934 -48.51239042 149.04573947 -50.8972168 150.47314453 C-52.67080342 151.53421613 -54.44652198 152.59163753 -56.22265625 153.6484375 C-57.26172119 154.26895996 -58.30078613 154.88948242 -59.37133789 155.52880859 C-62 157 -62 157 -65 158 C-65.07026366 143.96090955 -65.12287301 129.9218466 -65.15543652 115.88261604 C-65.1710682 109.36308808 -65.1922611 102.84367856 -65.22631836 96.32421875 C-65.25900049 90.02833777 -65.27687179 83.73257046 -65.28463173 77.43661118 C-65.29015932 75.03894131 -65.30095328 72.64127741 -65.31719017 70.24365616 C-65.33908172 66.87600687 -65.34196198 63.50882268 -65.34057617 60.14111328 C-65.351362 59.15783554 -65.36214783 58.1745578 -65.3732605 57.16148376 C-65.34441986 50.65142258 -64.19742231 45.12497077 -62 39 C-61.34 39 -60.68 39 -60 39 C-59.75765625 38.24332031 -59.5153125 37.48664063 -59.265625 36.70703125 C-56.06108021 29.852866 -46.74746016 26.18843009 -40.38989258 22.625 C-33.50537595 18.76000821 -26.72560153 14.71836779 -19.9375 10.6875 C-19.33696808 10.33116486 -18.73643616 9.97482971 -18.1177063 9.60769653 C-11.15292918 5.49997386 -11.15292918 5.49997386 -4.25610352 1.28051758 C-2 0 -2 0 0 0 Z " fill="#FCFDFD" transform="translate(180,39)"/>
<path d="M0 0 C-9.65531197 5.82025815 -19.34508518 11.58030751 -29.05712891 17.30541992 C-44.8916493 24.89204854 -44.8916493 24.89204854 -56 37 C-56.66 37 -57.32 37 -58 37 C-58.144375 37.721875 -58.28875 38.44375 -58.4375 39.1875 C-58.78428535 40.92142677 -59.14411582 42.65287503 -59.5252676 44.37957287 C-59.98070344 46.89348689 -60.13762277 49.18842016 -60.15821838 51.73933411 C-60.17290161 53.12535828 -60.17290161 53.12535828 -60.18788147 54.53938293 C-60.19363693 55.54063705 -60.1993924 56.54189117 -60.20532227 57.57348633 C-60.21522186 58.63735565 -60.22512146 59.70122498 -60.23532104 60.79733276 C-60.26687308 64.3088764 -60.29166867 67.82043355 -60.31640625 71.33203125 C-60.3369812 73.76869557 -60.35797782 76.20535635 -60.37937927 78.64201355 C-60.43454396 85.05184064 -60.48397799 91.46169965 -60.53222656 97.87158203 C-60.58248247 104.41376583 -60.63814719 110.95590336 -60.69335938 117.49804688 C-60.80087244 130.33199144 -60.90251634 143.16597554 -61 156 C-60.22914062 155.4946875 -59.45828125 154.989375 -58.6640625 154.46875 C-57.66117188 153.8190625 -56.65828125 153.169375 -55.625 152.5 C-54.12839844 151.52546875 -54.12839844 151.52546875 -52.6015625 150.53125 C-50 149 -50 149 -48 149 C-48 150.32 -48 151.64 -48 153 C-48.9590625 153.4021875 -48.9590625 153.4021875 -49.9375 153.8125 C-52.33131686 154.88667752 -52.33131686 154.88667752 -53 158 C-54.6254308 157.85904936 -56.25034051 157.71207913 -57.875 157.5625 C-59.23238281 157.44068359 -59.23238281 157.44068359 -60.6171875 157.31640625 C-63 157 -63 157 -65 156 C-65.00054477 155.43715364 -65.00108953 154.87430729 -65.00165081 154.29440498 C-65.01665545 140.56287217 -65.05956423 126.83166672 -65.13209057 113.10031319 C-65.16633065 106.45968809 -65.19146595 99.8194288 -65.19555664 93.17871094 C-65.19984586 86.76590615 -65.22836177 80.35361847 -65.27343178 73.94097519 C-65.2863866 71.4986968 -65.29072166 69.05635648 -65.28615379 66.614048 C-65.28123383 63.18370489 -65.3074053 59.75486499 -65.34057617 56.32470703 C-65.32763771 54.8217382 -65.32763771 54.8217382 -65.31443787 53.28840637 C-65.44564201 45.15465706 -67.88454349 38.78557357 -73.0703125 32.484375 C-77.8404287 28.45788908 -82.66127328 25.30612533 -88.2109375 22.4453125 C-91.05673029 20.97060195 -93.81013199 19.39190253 -96.5625 17.75 C-97.77099609 17.03070313 -97.77099609 17.03070313 -99.00390625 16.296875 C-101 15 -101 15 -103 13 C-97.65080752 13.32750158 -94.84866667 14.5054714 -90.64453125 17.7890625 C-88.57345473 19.31408321 -86.43082203 20.18972599 -84 21 C-84 21.66 -84 22.32 -84 23 C-83.113125 23.268125 -82.22625 23.53625 -81.3125 23.8125 C-78.19210962 24.93113051 -75.66827733 26.03803137 -73 28 C-73 28.99 -73 29.98 -73 31 C-71.68 31 -70.36 31 -69 31 C-66.9697411 31.93704257 -64.96303418 32.92925408 -63 34 C-63 33.34 -63 32.68 -63 32 C-61 32 -61 32 -59.375 33.5 C-58.92125 33.995 -58.4675 34.49 -58 35 C-57.6596875 33.576875 -57.6596875 33.576875 -57.3125 32.125 C-56 29 -56 29 -53.625 27.75 C-52.75875 27.5025 -51.8925 27.255 -51 27 C-50.278125 26.62875 -49.55625 26.2575 -48.8125 25.875 C-47 25 -47 25 -45 25 C-45 24.34 -45 23.68 -45 23 C-44.01 22.67 -43.02 22.34 -42 22 C-41.34 21.01 -40.68 20.02 -40 19 C-37.25 17.9375 -37.25 17.9375 -34 17 C-32.88625 16.62875 -31.7725 16.2575 -30.625 15.875 C-29.75875 15.58625 -28.8925 15.2975 -28 15 C-28 14.34 -28 13.68 -28 13 C-23.41845739 10.60457417 -18.9723422 8.49170266 -14 7 C-14 6.34 -14 5.68 -14 5 C-10.44509825 0.44972576 -5.63374697 -1.87791566 0 0 Z " fill="#4183EA" transform="translate(176,41)"/>
<path d="M0 0 C6 2 6 2 9 4 C9.16476616 6.88465163 9.15144746 9.57119234 9.01953125 12.4453125 C8.98818392 14.17963015 8.9603015 15.91401323 8.93554688 17.6484375 C8.88434274 20.38357137 8.81316372 23.11123609 8.68139648 25.84375 C7.83135832 35.751711 7.83135832 35.751711 11.32434082 44.58203125 C15.13537464 47.6329013 19.46794514 49.2484783 24 51 C26.25853936 52.17772862 28.42939462 53.45480674 30.625 54.75 C31.56601563 55.28109375 32.50703125 55.8121875 33.4765625 56.359375 C36.01171394 58.00761588 37.95064197 59.78707819 40 62 C38.5164999 61.57742724 37.03823576 61.13643678 35.5625 60.6875 C34.73878906 60.44386719 33.91507813 60.20023438 33.06640625 59.94921875 C32.38449219 59.63597656 31.70257813 59.32273438 31 59 C30.67 58.01 30.34 57.02 30 56 C29.38511719 56.02320313 28.77023438 56.04640625 28.13671875 56.0703125 C27.32847656 56.08835938 26.52023438 56.10640625 25.6875 56.125 C24.88699219 56.14820313 24.08648437 56.17140625 23.26171875 56.1953125 C21 56 21 56 18 54 C18 53.01 18 52.02 18 51 C17.34 51 16.68 51 16 51 C14.33333333 49.33333333 12.66666667 47.66666667 11 46 C7.76338106 43.66915279 7.76338106 43.66915279 4 43 C3.67 41.35 3.34 39.7 3 38 C1.02 38 -0.96 38 -3 38 C-3 37.34 -3 36.68 -3 36 C-2.34 36 -1.68 36 -1 36 C-0.67 24.12 -0.34 12.24 0 0 Z " fill="#3E86F6" transform="translate(70,136)"/>
<path d="M0 0 C0.66 0 1.32 0 2 0 C2 0.66 2 1.32 2 2 C2.66 2 3.32 2 4 2 C4.33 38.96 4.66 75.92 5 114 C5.33 78.03 5.66 42.06 6 5 C6.66 5 7.32 5 8 5 C7.67 41.96 7.34 78.92 7 117 C10.63 114.69 14.26 112.38 18 110 C18.66 110 19.32 110 20 110 C20 111.32 20 112.64 20 114 C19.360625 114.268125 18.72125 114.53625 18.0625 114.8125 C15.66868314 115.88667752 15.66868314 115.88667752 15 119 C13.3745692 118.85904936 11.74965949 118.71207913 10.125 118.5625 C8.76761719 118.44068359 8.76761719 118.44068359 7.3828125 118.31640625 C5 118 5 118 3 117 C2.99668985 116.43346647 2.99337971 115.86693295 2.98996925 115.28323174 C2.90868333 101.48642195 2.81644836 87.68972259 2.71247292 73.8930645 C2.66252095 67.2210454 2.61619063 60.54905145 2.578125 53.87695312 C2.54125861 47.4383758 2.49489454 40.99993059 2.44193649 34.56146622 C2.42339983 32.1047103 2.40828919 29.64792608 2.39665604 27.19112778 C2.37978149 23.75081598 2.35074267 20.31080625 2.31884766 16.87060547 C2.31668747 15.85424515 2.31452728 14.83788483 2.31230164 13.79072571 C2.25317834 8.80060759 1.97448816 4.67513792 0 0 Z " fill="#6190D9" transform="translate(108,80)"/>
<path d="M0 0 C0 13.2 0 26.4 0 40 C-1.98 40.495 -1.98 40.495 -4 41 C-4 39.68 -4 38.36 -4 37 C-3.34 37 -2.68 37 -2 37 C-2.33 30.07 -2.66 23.14 -3 16 C-3.33 16 -3.66 16 -4 16 C-4.495 11.05 -4.495 11.05 -5 6 C-5.33 6.66 -5.66 7.32 -6 8 C-6.804375 8.28875 -7.60875 8.5775 -8.4375 8.875 C-11.45301712 10.19888557 -11.79809721 11.04147005 -13 14 C-13.66 14.66 -14.32 15.32 -15 16 C-17.1640625 15.7578125 -17.1640625 15.7578125 -19.625 15.125 C-20.44226563 14.92132813 -21.25953125 14.71765625 -22.1015625 14.5078125 C-22.72804687 14.34023438 -23.35453125 14.17265625 -24 14 C-19.73351592 10.35517927 -15.14038974 7.56729274 -10.3125 4.75 C-9.15524414 4.06164063 -9.15524414 4.06164063 -7.97460938 3.359375 C-6.86762695 2.7096875 -6.86762695 2.7096875 -5.73828125 2.046875 C-5.06837158 1.65338867 -4.39846191 1.25990234 -3.70825195 0.85449219 C-2 0 -2 0 0 0 Z " fill="#E6F6FA" transform="translate(180,39)"/>
<path d="M0 0 C3.58075836 -0.18054244 4.72143703 -0.18570865 7.8125 1.875 C8.534375 2.57625 9.25625 3.2775 10 4 C10 4.66 10 5.32 10 6 C6.91489173 4.80023567 3.94952958 3.49997444 1 2 C1.03726337 16.03928481 1.09752561 30.07831195 1.18390274 44.11738396 C1.2233504 50.63685971 1.25555243 57.15620094 1.27099609 63.67578125 C1.28618015 69.97182873 1.32065778 76.2675063 1.36830902 82.56338882 C1.38310459 84.96100772 1.39103996 87.35867944 1.39188385 89.75634384 C1.39426063 93.12425565 1.42139953 96.49115108 1.45410156 99.85888672 C1.4490712 100.84216446 1.44404083 101.8254422 1.43885803 102.83851624 C1.56491698 111.27296818 3.6322508 119.26965282 9.625 125.5 C10.21539062 126.1290625 10.80578125 126.758125 11.4140625 127.40625 C12.6077341 128.60580176 13.80338471 129.80338471 15 131 C8.375 131.25 8.375 131.25 5 129 C4.375 125.625 4.375 125.625 4 122 C3.69096017 120.66082739 3.37057089 119.32346746 3 118 C2.34 118 1.68 118 1 118 C0.0337556 115.10126681 -0.1235395 113.28572407 -0.12025452 110.27339172 C-0.12231651 108.81576416 -0.12231651 108.81576416 -0.12442017 107.32868958 C-0.12082489 106.26414047 -0.11722961 105.19959137 -0.11352539 104.1027832 C-0.11367142 102.98068451 -0.11381744 101.85858582 -0.1139679 100.70248413 C-0.11326998 96.98523032 -0.10548317 93.26802633 -0.09765625 89.55078125 C-0.09579164 86.9767408 -0.09436794 84.40269999 -0.09336853 81.82865906 C-0.08993757 75.74074472 -0.08205218 69.65285101 -0.07201904 63.56494445 C-0.06084421 56.63393306 -0.055344 49.70292083 -0.05032361 42.77190268 C-0.03986921 28.51459215 -0.0222783 14.25729671 0 0 Z " fill="#5C94D9" transform="translate(45,37)"/>
<path d="M0 0 C5.4868068 0.6096452 5.4868068 0.6096452 7.6809082 2.27856445 C9.33031047 4.43106036 9.35013306 5.54374606 9.29296875 8.23046875 C9.28330078 9.03291016 9.27363281 9.83535156 9.26367188 10.66210938 C9.23853516 11.49548828 9.21339844 12.32886719 9.1875 13.1875 C9.17396484 14.03248047 9.16042969 14.87746094 9.14648438 15.74804688 C9.11115799 17.83230384 9.05735139 19.91623277 9 22 C5.34566735 21.18174726 2.3203797 19.73565302 -1 18 C-1.02690844 15.37493198 -1.04679404 12.75013827 -1.0625 10.125 C-1.07087891 9.37863281 -1.07925781 8.63226563 -1.08789062 7.86328125 C-1.11328125 2.2265625 -1.11328125 2.2265625 0 0 Z " fill="#588CDB" transform="translate(71,96)"/>
<path d="M0 0 C-9.65531197 5.82025815 -19.34508518 11.58030751 -29.05712891 17.30541992 C-44.8916493 24.89204854 -44.8916493 24.89204854 -56 37 C-56.66 37 -57.32 37 -58 37 C-58.495 39.475 -58.495 39.475 -59 42 C-60 39 -60 39 -59 36 C-58.34 36 -57.68 36 -57 36 C-56.67 33.69 -56.34 31.38 -56 29 C-55.2575 28.71125 -54.515 28.4225 -53.75 28.125 C-51.06092912 27.071251 -51.06092912 27.071251 -48.8125 25.875 C-47 25 -47 25 -45 25 C-45 24.34 -45 23.68 -45 23 C-44.01 22.67 -43.02 22.34 -42 22 C-41.34 21.01 -40.68 20.02 -40 19 C-37.25 17.9375 -37.25 17.9375 -34 17 C-32.88625 16.62875 -31.7725 16.2575 -30.625 15.875 C-29.75875 15.58625 -28.8925 15.2975 -28 15 C-28 14.34 -28 13.68 -28 13 C-23.41845739 10.60457417 -18.9723422 8.49170266 -14 7 C-14 6.34 -14 5.68 -14 5 C-10.44509825 0.44972576 -5.63374697 -1.87791566 0 0 Z " fill="#578CD7" transform="translate(176,41)"/>
<path d="M0 0 C6 2 6 2 9 4 C9.26653946 6.9795099 9.34767784 9.7488582 9.29296875 12.7265625 C9.28872391 13.58937836 9.28447906 14.45219421 9.28010559 15.34115601 C9.26328392 18.10275197 9.22562598 20.86362383 9.1875 23.625 C9.17245764 25.49478114 9.15876846 27.3645737 9.14648438 29.234375 C9.11336906 33.82319658 9.06156339 38.41147544 9 43 C8.67 43 8.34 43 8 43 C8 30.46 8 17.92 8 5 C6.02 4.34 4.04 3.68 2 3 C2 14.22 2 25.44 2 37 C1.34 37 0.68 37 0 37 C0 24.79 0 12.58 0 0 Z " fill="#6090D6" transform="translate(70,136)"/>
<path d="M0 0 C0.33 0 0.66 0 1 0 C1.33 34.65 1.66 69.3 2 105 C3.32 105.33 4.64 105.66 6 106 C2.25 109 2.25 109 0 109 C0 73.03 0 37.06 0 0 Z " fill="#CBEBF7" transform="translate(115,88)"/>
<path d="M0 0 C0.66 0.33 1.32 0.66 2 1 C1.34 2.32 0.68 3.64 0 5 C-0.66 5 -1.32 5 -2 5 C-2 5.66 -2 6.32 -2 7 C-2.99 7 -3.98 7 -5 7 C-5 7.66 -5 8.32 -5 9 C-5.66 9 -6.32 9 -7 9 C-7.78948436 13.90344789 -8.14573817 18.60811808 -8.20532227 23.58764648 C-8.21522186 24.31043289 -8.22512146 25.0332193 -8.23532104 25.77790833 C-8.26664637 28.14227134 -8.29157751 30.50665437 -8.31640625 32.87109375 C-8.33700087 34.52019238 -8.35799797 36.16928602 -8.37937927 37.81837463 C-8.43434109 42.14028874 -8.48386358 46.46224841 -8.53222656 50.78424072 C-8.58263169 55.20190444 -8.63821811 59.61950269 -8.69335938 64.03710938 C-8.80062385 72.69135075 -8.90213805 81.34564722 -9 90 C-9.33 90 -9.66 90 -10 90 C-10.04635717 80.04682039 -10.08188643 70.0936665 -10.10362434 60.14040089 C-10.11405787 55.5186106 -10.12820926 50.89689423 -10.15087891 46.27514648 C-10.17262257 41.81422385 -10.18457187 37.35337228 -10.18975449 32.89240074 C-10.1934475 31.1911679 -10.20065902 29.48993891 -10.21146011 27.78873634 C-10.22599529 25.40440109 -10.2279771 23.02035882 -10.22705078 20.63598633 C-10.23424133 19.93395584 -10.24143188 19.23192535 -10.24884033 18.50862122 C-10.23227144 14.5626752 -9.7327442 11.5553628 -8 8 C-7.34 8 -6.68 8 -6 8 C-5.7525 7.236875 -5.505 6.47375 -5.25 5.6875 C-3.89004442 2.7635955 -2.68414174 1.69995644 0 0 Z " fill="#F1FFF7" transform="translate(126,70)"/>
<path d="M0 0 C1.65 0 3.3 0 5 0 C4.01 0.495 4.01 0.495 3 1 C3 13.21 3 25.42 3 38 C-14.33333333 29.33333333 -14.33333333 29.33333333 -18.5 19.4375 C-18.665 18.633125 -18.83 17.82875 -19 17 C-18.34 17 -17.68 17 -17 17 C-15 20 -15 20 -15 23 C-14.01 22.67 -13.02 22.34 -12 22 C-12 23.32 -12 24.64 -12 26 C-11.34 26.33 -10.68 26.66 -10 27 C-10 27.66 -10 28.32 -10 29 C-9.401875 29.144375 -8.80375 29.28875 -8.1875 29.4375 C-6.43849596 29.8872439 -4.71322977 30.42892341 -3 31 C-3 31.66 -3 32.32 -3 33 C-1.68 33.33 -0.36 33.66 1 34 C1.024727 29.64005933 1.04287281 25.28015586 1.05493164 20.92016602 C1.05995903 19.43708587 1.06678185 17.95401067 1.07543945 16.47094727 C1.08757482 14.33869199 1.09324425 12.20650227 1.09765625 10.07421875 C1.10289307 8.79119873 1.10812988 7.50817871 1.11352539 6.1862793 C1.14927176 2.9774026 1.14927176 2.9774026 0 0 Z " fill="#DAF1FA" transform="translate(67,135)"/>
<path d="M0 0 C0 1.32 0 2.64 0 4 C-0.99 4.33 -1.98 4.66 -3 5 C-3.66 4.67 -4.32 4.34 -5 4 C-5 4.66 -5 5.32 -5 6 C-5.99 6 -6.98 6 -8 6 C-8.2165625 6.9590625 -8.2165625 6.9590625 -8.4375 7.9375 C-9 10 -9 10 -10 11 C-10.07548699 13.03777124 -10.08309373 15.07812257 -10.0625 17.1171875 C-10.05476562 18.36371094 -10.04703125 19.61023438 -10.0390625 20.89453125 C-10.01309749 23.54036534 -9.98705628 26.18619868 -9.9609375 28.83203125 C-9.95320312 30.08113281 -9.94546875 31.33023438 -9.9375 32.6171875 C-9.92589844 33.76815918 -9.91429687 34.91913086 -9.90234375 36.10498047 C-10 39 -10 39 -11 42 C-10.01 41.34 -9.02 40.68 -8 40 C-5.3125 39.875 -5.3125 39.875 -3 40 C-5.89359122 43.3222714 -7.68914241 44.32084333 -12 45 C-12.12385084 39.82227254 -12.21445571 34.64541212 -12.2746582 29.46655273 C-12.29976061 27.70598324 -12.33385028 25.94551753 -12.37719727 24.18530273 C-12.43804115 21.65061821 -12.46625113 19.11731425 -12.48828125 16.58203125 C-12.51408768 15.79850784 -12.5398941 15.01498444 -12.56648254 14.2077179 C-12.5686327 9.9923471 -12.38594041 8.47751002 -9.63745117 5.0769043 C-3.19031386 0 -3.19031386 0 0 0 Z " fill="#4F84D2" transform="translate(162,90)"/>
<path d="M0 0 C-0.50603992 2.16874252 -0.99983813 3.99967627 -2 6 C-1.34 6 -0.68 6 0 6 C0 6.66 0 7.32 0 8 C-0.93972656 7.85691406 -0.93972656 7.85691406 -1.8984375 7.7109375 C-2.71570313 7.60007813 -3.53296875 7.48921875 -4.375 7.375 C-5.18710938 7.25898438 -5.99921875 7.14296875 -6.8359375 7.0234375 C-7.55007812 7.01570312 -8.26421875 7.00796875 -9 7 C-9.66 7.66 -10.32 8.32 -11 9 C-10.34 9.33 -9.68 9.66 -9 10 C-10.65 11.65 -12.3 13.3 -14 15 C-14.66 14.67 -15.32 14.34 -16 14 C-15.67 13.34 -15.34 12.68 -15 12 C-15.556875 12.33 -16.11375 12.66 -16.6875 13 C-19.30284522 14.1309601 -21.1806646 14.15662974 -24 14 C-20.50478211 11.07661004 -16.95638183 8.69324321 -13 6.4375 C-8.59248758 3.91588655 -8.59248758 3.91588655 -4.25 1.28515625 C-2 0 -2 0 0 0 Z " fill="#4C89E6" transform="translate(152,176)"/>
<path d="M0 0 C2.23044611 1.10164118 4.45935646 2.20621894 6.6875 3.3125 C7.31333984 3.62123047 7.93917969 3.92996094 8.58398438 4.24804688 C14.46123617 7.1712873 19.86418546 10.53533311 25.3125 14.1875 C26.38113281 14.90292969 27.44976562 15.61835938 28.55078125 16.35546875 C29.35902344 16.89816406 30.16726562 17.44085938 31 18 C30.34 18.33 29.68 18.66 29 19 C27.0546875 18.22265625 27.0546875 18.22265625 24.875 17.0625 C24.15054688 16.68222656 23.42609375 16.30195313 22.6796875 15.91015625 C22.12539062 15.60980469 21.57109375 15.30945313 21 15 C21 14.34 21 13.68 21 13 C20.38511719 13.02320313 19.77023438 13.04640625 19.13671875 13.0703125 C17.92435547 13.09738281 17.92435547 13.09738281 16.6875 13.125 C15.88699219 13.14820313 15.08648437 13.17140625 14.26171875 13.1953125 C12 13 12 13 9 11 C9 10.01 9 9.02 9 8 C8.34 8 7.68 8 7 8 C5.31237149 6.3545622 3.6459651 4.68711423 2 3 C1.34 2.67 0.68 2.34 0 2 C0 1.34 0 0.68 0 0 Z " fill="#4B88E3" transform="translate(79,179)"/>
<path d="M0 0 C5.34919248 0.32750158 8.15133333 1.5054714 12.35546875 4.7890625 C14.42654527 6.31408321 16.56917797 7.18972599 19 8 C19 8.66 19 9.32 19 10 C20.3303125 10.4021875 20.3303125 10.4021875 21.6875 10.8125 C24.80789038 11.93113051 27.33172267 13.03803137 30 15 C30 15.99 30 16.98 30 18 C30.99 18.33 31.98 18.66 33 19 C33.66 19.99 34.32 20.98 35 22 C34.505 23.485 34.505 23.485 34 25 C33.37738281 24.1646875 33.37738281 24.1646875 32.7421875 23.3125 C26.89750484 16.0738972 20.04386737 12.27386689 12 8 C10.07479125 6.8896814 8.1569441 5.76640278 6.25 4.625 C5.08210938 3.93277344 5.08210938 3.93277344 3.890625 3.2265625 C2 2 2 2 0 0 Z " fill="#588BD3" transform="translate(73,54)"/>
<path d="M0 0 C0 9.57 0 19.14 0 29 C-0.33 29 -0.66 29 -1 29 C-1 21.41 -1 13.82 -1 6 C-2.98 6.66 -4.96 7.32 -7 8 C-7 8.66 -7 9.32 -7 10 C-7.99 10 -8.98 10 -10 10 C-10 9.34 -10 8.68 -10 8 C-11.32 8.33 -12.64 8.66 -14 9 C-10.73787201 5.33010602 -5.2007339 0 0 0 Z " fill="#D0EDFA" transform="translate(180,118)"/>
<path d="M0 0 C1.32 0 2.64 0 4 0 C3.93216309 0.58845703 3.86432617 1.17691406 3.79443359 1.78320312 C3.29018416 6.4313835 2.9245748 11.0443729 2.7890625 15.71875 C2.76070312 16.67007813 2.73234375 17.62140625 2.703125 18.6015625 C2.65020512 20.5648901 2.60620281 22.52847477 2.5703125 24.4921875 C2.539375 25.43320313 2.5084375 26.37421875 2.4765625 27.34375 C2.45674316 28.19130859 2.43692383 29.03886719 2.41650391 29.91210938 C2.27905762 30.60111328 2.14161133 31.29011719 2 32 C1.01 32.66 0.02 33.32 -1 34 C-0.67 22.78 -0.34 11.56 0 0 Z " fill="#4683DF" transform="translate(180,118)"/>
<path d="M0 0 C-2.89190305 1.79806978 -5.78918109 3.58729365 -8.6875 5.375 C-9.50412109 5.88289063 -10.32074219 6.39078125 -11.16210938 6.9140625 C-11.95810547 7.40390625 -12.75410156 7.89375 -13.57421875 8.3984375 C-14.30213623 8.84880371 -15.03005371 9.29916992 -15.7800293 9.76318359 C-18.12414298 11.06916401 -20.49107667 12.05505578 -23 13 C-23 12.01 -23 11.02 -23 10 C-21.02 9.67 -19.04 9.34 -17 9 C-16.34 6.69 -15.68 4.38 -15 2 C-14.113125 1.87625 -13.22625 1.7525 -12.3125 1.625 C-9.04866513 1.13306198 -9.04866513 1.13306198 -6.375 -0.125 C-3.66453393 -1.12359276 -2.68822867 -0.80533433 0 0 Z " fill="#ECF8F7" transform="translate(176,81)"/>
<path d="M0 0 C1.65 0 3.3 0 5 0 C6.38226016 2.76452033 6.09525387 5.0461363 6.0625 8.125 C6.05347656 9.22070312 6.04445313 10.31640625 6.03515625 11.4453125 C6.02355469 12.28835937 6.01195313 13.13140625 6 14 C5.01 14.495 5.01 14.495 4 15 C3.01 14.34 2.02 13.68 1 13 C0.875 9.4375 0.875 9.4375 1 6 C0.67 5.67 0.34 5.34 0 5 C-0.04063832 3.33382885 -0.042721 1.66611905 0 0 Z " fill="#3A85FA" transform="translate(72,99)"/>
<path d="M0 0 C1.65 0 3.3 0 5 0 C5.14834893 5.90809114 5.25721667 11.81509821 5.32958984 17.72460938 C5.35975867 19.73456708 5.40070034 21.74439318 5.45263672 23.75390625 C5.52544912 26.64355916 5.55945434 29.53147204 5.5859375 32.421875 C5.61690521 33.31992859 5.64787292 34.21798218 5.67977905 35.14324951 C5.6810889 37.57275598 5.62143519 39.65078284 5 42 C1.54974475 45.08170124 -1.41572541 46.46067358 -6 47 C-3.63202009 44.38275905 -1.10399646 42.67138271 2 41 C2.66 41 3.32 41 4 41 C4 27.8 4 14.6 4 1 C2.68 1.33 1.36 1.66 0 2 C0 1.34 0 0.68 0 0 Z " fill="#4A7CCB" transform="translate(176,38)"/>
<path d="M0 0 C1.49997237 2.85584259 2.61783285 5.71040285 3.6875 8.75 C6.16212752 15.06263474 10.27913011 19.27913011 15 24 C8.375 24.25 8.375 24.25 5 22 C4.375 18.625 4.375 18.625 4 15 C3.69096017 13.66082739 3.37057089 12.32346746 3 11 C2.34 11 1.68 11 1 11 C-0.28317892 7.15046324 -0.06643637 4.05261865 0 0 Z " fill="#548CD5" transform="translate(45,144)"/>
<path d="M0 0 C0.33 0 0.66 0 1 0 C1 6.27 1 12.54 1 19 C-8.68219833 17.78972521 -8.68219833 17.78972521 -11 15 C-11.390625 12.08203125 -11.390625 12.08203125 -11.25 8.8125 C-11.21390625 7.72582031 -11.1778125 6.63914062 -11.140625 5.51953125 C-11.09421875 4.68808594 -11.0478125 3.85664062 -11 3 C-10.67 3 -10.34 3 -10 3 C-10 6.3 -10 9.6 -10 13 C-9.0925 13.28875 -8.185 13.5775 -7.25 13.875 C-4 15 -4 15 0 17 C0 11.39 0 5.78 0 0 Z " fill="#D1E6F5" transform="translate(80,101)"/>
<path d="M0 0 C0 1.32 0 2.64 0 4 C-0.639375 4.268125 -1.27875 4.53625 -1.9375 4.8125 C-4.33131686 5.88667752 -4.33131686 5.88667752 -5 9 C-6.6254308 8.85904936 -8.25034051 8.71207913 -9.875 8.5625 C-10.77992187 8.48128906 -11.68484375 8.40007812 -12.6171875 8.31640625 C-15 8 -15 8 -17 7 C-17 6.01 -17 5.02 -17 4 C-16.195625 4.45375 -15.39125 4.9075 -14.5625 5.375 C-10.29572218 6.12355751 -9.68963773 5.50329555 -6.25 3.125 C-5.49203125 2.55007812 -4.7340625 1.97515625 -3.953125 1.3828125 C-2 0 -2 0 0 0 Z " fill="#3B86F0" transform="translate(128,190)"/>
<path d="M0 0 C0.92538169 3.70152678 1.08174162 4.63458162 0 8 C-3.09097736 8.99352844 -4.91625179 8.96367132 -8 8 C-9.32 7.67 -10.64 7.34 -12 7 C-8.04 4.69 -4.08 2.38 0 0 Z " fill="#EBF3F2" transform="translate(151,55)"/>
<path d="M0 0 C-2.41202201 1.65301509 -4.82915337 3.29749946 -7.25 4.9375 C-7.93191406 5.40607422 -8.61382812 5.87464844 -9.31640625 6.35742188 C-9.98027344 6.80537109 -10.64414063 7.25332031 -11.328125 7.71484375 C-11.9355957 8.12855225 -12.54306641 8.54226074 -13.16894531 8.96850586 C-15.10148624 10.05717058 -16.83410258 10.56305737 -19 11 C-19 10.01 -19 9.02 -19 8 C-16.69 7.34 -14.38 6.68 -12 6 C-12.33 5.01 -12.66 4.02 -13 3 C-12.01 3 -11.02 3 -10 3 C-9.54625 2.525625 -9.0925 2.05125 -8.625 1.5625 C-6.04606247 -0.91724763 -3.22733219 -1.6136661 0 0 Z " fill="#4983DD" transform="translate(179,118)"/>
<path d="M0 0 C0.33 0 0.66 0 1 0 C1 12.21 1 24.42 1 37 C2.32 37.66 3.64 38.32 5 39 C5 39.66 5 40.32 5 41 C3.35 40.34 1.7 39.68 0 39 C0 26.13 0 13.26 0 0 Z " fill="#A8CEF1" transform="translate(79,140)"/>
<path d="M0 0 C0.66 0 1.32 0 2 0 C2 0.66 2 1.32 2 2 C3.32 2 4.64 2 6 2 C8.25 3.875 8.25 3.875 10 6 C10 6.66 10 7.32 10 8 C10.94875 8.0825 11.8975 8.165 12.875 8.25 C16 9 16 9 17.375 11.0625 C17.58125 11.701875 17.7875 12.34125 18 13 C16.66666667 12.33333333 15.33333333 11.66666667 14 11 C13.13375 10.5875 12.2675 10.175 11.375 9.75 C6.79036654 7.37278265 2.4060553 4.69065432 -2 2 C-1.34 1.34 -0.68 0.68 0 0 Z " fill="#D2EDF8" transform="translate(86,180)"/>
<path d="M0 0 C0.87840996 3.09720845 0.99435406 4.90645403 0 8 C-0.66 8 -1.32 8 -2 8 C-2 8.66 -2 9.32 -2 10 C-3.390625 11.54296875 -3.390625 11.54296875 -5.25 13.1875 C-5.85328125 13.73792969 -6.4565625 14.28835937 -7.078125 14.85546875 C-9 16 -9 16 -11.234375 15.67578125 C-11.81703125 15.45277344 -12.3996875 15.22976562 -13 15 C-12.154375 14.566875 -11.30875 14.13375 -10.4375 13.6875 C-5.4902056 10.46408384 -2.90562188 4.98597838 0 0 Z " fill="#6294D9" transform="translate(178,152)"/>
<path d="M0 0 C0 1.32 0 2.64 0 4 C-0.99 4.33 -1.98 4.66 -3 5 C-3.66 4.67 -4.32 4.34 -5 4 C-5 4.66 -5 5.32 -5 6 C-5.99 6 -6.98 6 -8 6 C-8.103125 6.639375 -8.20625 7.27875 -8.3125 7.9375 C-8.539375 8.618125 -8.76625 9.29875 -9 10 C-9.99 10.33 -10.98 10.66 -12 11 C-11.68997854 7.80732289 -11.42853465 6.38660367 -9.00390625 4.19921875 C-8.19824219 3.70035156 -7.39257812 3.20148438 -6.5625 2.6875 C-5.75941406 2.17574219 -4.95632812 1.66398437 -4.12890625 1.13671875 C-2 0 -2 0 0 0 Z " fill="#5C92DA" transform="translate(162,90)"/>
<path d="M0 0 C0.66 0.33 1.32 0.66 2 1 C2.08117951 3.41734542 2.14056926 5.83194949 2.1875 8.25 C2.21263672 8.93191406 2.23777344 9.61382812 2.26367188 10.31640625 C2.31137459 13.59199289 2.21085076 15.65348556 0.48828125 18.484375 C-0.00285156 18.98453125 -0.49398437 19.4846875 -1 20 C-1.11044961 13.26257354 -0.70132913 6.70019789 0 0 Z " fill="#E9F9FA" transform="translate(177,136)"/>
<path d="M0 0 C0.66 0.33 1.32 0.66 2 1 C1.34 2.32 0.68 3.64 0 5 C-0.66 5 -1.32 5 -2 5 C-2 5.66 -2 6.32 -2 7 C-2.99 7 -3.98 7 -5 7 C-5 7.66 -5 8.32 -5 9 C-5.66 9 -6.32 9 -7 9 C-7.12375 10.11375 -7.2475 11.2275 -7.375 12.375 C-8 16 -8 16 -10 18 C-10.22036864 14.14354879 -9.60355101 11.50776784 -8 8 C-7.34 8 -6.68 8 -6 8 C-5.7525 7.236875 -5.505 6.47375 -5.25 5.6875 C-3.89004442 2.7635955 -2.68414174 1.69995644 0 0 Z " fill="#D8EFF9" transform="translate(126,70)"/>
<path d="M0 0 C0.66 0 1.32 0 2 0 C3.74762143 5.15548322 3.74762143 5.15548322 4 8 C2.25 11 2.25 11 0 13 C-0.66 13 -1.32 13 -2 13 C-1.6875 11.0625 -1.6875 11.0625 -1 9 C-0.01 8.67 0.98 8.34 2 8 C1.01 7.34 0.02 6.68 -1 6 C-0.67 5.01 -0.34 4.02 0 3 C0 2.01 0 1.02 0 0 Z " fill="#E9F6F4" transform="translate(170,152)"/>
<path d="M0 0 C4.61513112 1.31860889 8.09897612 3.21355437 12 6 C11.34 6.66 10.68 7.32 10 8 C10 7.34 10 6.68 10 6 C9.21625 6.20625 8.4325 6.4125 7.625 6.625 C6.75875 6.74875 5.8925 6.8725 5 7 C4.34 6.34 3.68 5.68 3 5 C3 4.01 3 3.02 3 2 C2.01 2 1.02 2 0 2 C0 1.34 0 0.68 0 0 Z " fill="#DCF1F9" transform="translate(88,64)"/>
<path d="M0 0 C0.66 0 1.32 0 2 0 C4 3 4 3 4 6 C4.99 5.67 5.98 5.34 7 5 C7 6.32 7 7.64 7 9 C7.66 9.33 8.32 9.66 9 10 C9 10.66 9 11.32 9 12 C5.5912072 10.6015209 4.12606165 9.14993067 2.25 6 C1.82203125 5.29875 1.3940625 4.5975 0.953125 3.875 C0 2 0 2 0 0 Z " fill="#DCF2FB" transform="translate(48,152)"/>
<path d="M0 0 C4.67239145 2.13206212 8.59287819 4.02502456 12 8 C11.01 8.495 11.01 8.495 10 9 C7.375 7.6875 7.375 7.6875 5 6 C5 5.34 5 4.68 5 4 C3.68 4 2.36 4 1 4 C0.67 2.68 0.34 1.36 0 0 Z " fill="#DAF1F9" transform="translate(59,46)"/>
<path d="M0 0 C-5.94 3.465 -5.94 3.465 -12 7 C-12.66 6.34 -13.32 5.68 -14 5 C-12.35 4.67 -10.7 4.34 -9 4 C-9 3.34 -9 2.68 -9 2 C-5.33876089 -0.74592933 -4.63002084 -1.15750521 0 0 Z " fill="#D8EFF8" transform="translate(150,177)"/>
<path d="M0 0 C9.59453303 5.0022779 9.59453303 5.0022779 13 9 C11.5164999 8.57742724 10.03823576 8.13643678 8.5625 7.6875 C7.73878906 7.44386719 6.91507812 7.20023438 6.06640625 6.94921875 C5.38449219 6.63597656 4.70257813 6.32273438 4 6 C3.67 5.01 3.34 4.02 3 3 C2.01 2.67 1.02 2.34 0 2 C0 1.34 0 0.68 0 0 Z " fill="#5688D6" transform="translate(97,189)"/>
<path d="M0 0 C4.31392226 0.4793247 6.16569547 1.7457985 9 5 C2.375 5.25 2.375 5.25 -1 3 C-0.67 2.01 -0.34 1.02 0 0 Z " fill="#4986E6" transform="translate(51,163)"/>
<path d="M0 0 C0 0.99 0 1.98 0 3 C-1.32 3.33 -2.64 3.66 -4 4 C-4 4.66 -4 5.32 -4 6 C-5.98 6.33 -7.96 6.66 -10 7 C-7.0094833 3.66442368 -4.06815373 1.84916079 0 0 Z " fill="#D8F1F8" transform="translate(138,63)"/>
<path d="M0 0 C2.64 0 5.28 0 8 0 C8.33 1.65 8.66 3.3 9 5 C4.98525763 5 3.18024863 3.33218233 0 1 C0 0.67 0 0.34 0 0 Z " fill="#578FDA" transform="translate(64,48)"/>
<path d="M0 0 C0.66 0.33 1.32 0.66 2 1 C-0.26557485 4.39836227 -1.30722534 4.64898488 -5 6 C-5.99 6.66 -6.98 7.32 -8 8 C-8.99 7.67 -9.98 7.34 -11 7 C-9.21475351 5.80286983 -7.4215972 4.61752721 -5.625 3.4375 C-4.62726563 2.77621094 -3.62953125 2.11492187 -2.6015625 1.43359375 C-1.74304688 0.96050781 -0.88453125 0.48742187 0 0 Z " fill="#5B8BD3" transform="translate(163,168)"/>
<path d="M0 0 C0 0.99 0 1.98 0 3 C-0.66 3 -1.32 3 -2 3 C-2 3.66 -2 4.32 -2 5 C-2.99 5 -3.98 5 -5 5 C-5 4.34 -5 3.68 -5 3 C-6.32 3.33 -7.64 3.66 -9 4 C-7.02579865 1.47740939 -6.03254358 1.0070192 -2.8125 0.3125 C-1.4203125 0.1578125 -1.4203125 0.1578125 0 0 Z " fill="#EAF6FB" transform="translate(175,123)"/>
<path d="M0 0 C2.475 0.495 2.475 0.495 5 1 C5 1.99 5 2.98 5 4 C4.01 4 3.02 4 2 4 C1.34 5.32 0.68 6.64 0 8 C0 5.36 0 2.72 0 0 Z " fill="#E2F6F7" transform="translate(47,40)"/>
<path d="M0 0 C-6.75 4 -6.75 4 -9 4 C-9 3.01 -9 2.02 -9 1 C-5.57367167 -0.61798838 -3.61944899 -1.34053666 0 0 Z " fill="#5489DA" transform="translate(169,125)"/>
<path d="M0 0 C0.928125 0.350625 1.85625 0.70125 2.8125 1.0625 C5.9802953 2.32382628 5.9802953 2.32382628 9 1 C9 1.66 9 2.32 9 3 C2.25 4.125 2.25 4.125 0 3 C0 2.01 0 1.02 0 0 Z " fill="#5189D7" transform="translate(111,194)"/>
<path d="M0 0 C0 0.66 0 1.32 0 2 C-3.2491277 4.3208055 -6.05879291 5.43697042 -10 6 C-7.35570758 3.077361 -4.105808 0 0 0 Z " fill="#6795D3" transform="translate(180,79)"/>
<path d="M0 0 C0.33 0.99 0.66 1.98 1 3 C0.34 3 -0.32 3 -1 3 C-1.33 5.64 -1.66 8.28 -2 11 C-2.33 11 -2.66 11 -3 11 C-3 9.35 -3 7.7 -3 6 C-3.66 5.67 -4.32 5.34 -5 5 C-4.34 4.34 -3.68 3.68 -3 3 C-2.67 2.34 -2.34 1.68 -2 1 C-1.34 1.33 -0.68 1.66 0 2 C0 1.34 0 0.68 0 0 Z " fill="#3F80E8" transform="translate(118,74)"/>
<path d="M0 0 C2.625 -0.1875 2.625 -0.1875 5 0 C3.515 1.98 3.515 1.98 2 4 C0.68 3.67 -0.64 3.34 -2 3 C-1.34 2.01 -0.68 1.02 0 0 Z " fill="#4D8BE1" transform="translate(136,60)"/>
<path d="M0 0 C3.34373475 0.55728913 6.03312999 1.35173889 9 3 C9 3.66 9 4.32 9 5 C5.22454612 3.90931332 2.52956528 3.0916909 0 0 Z " fill="#5D8ECF" transform="translate(55,43)"/>
<path d="M0 0 C1.98 0.99 3.96 1.98 6 3 C5.67 3.66 5.34 4.32 5 5 C4.01 4.67 3.02 4.34 2 4 C1.01 4.99 0.02 5.98 -1 7 C-0.67 4.69 -0.34 2.38 0 0 Z " fill="#3382F4" transform="translate(42,33)"/>
<path d="M0 0 C0 0.99 0 1.98 0 3 C-4.625 5.125 -4.625 5.125 -8 4 C-2.25 0 -2.25 0 0 0 Z " fill="#5A8FD1" transform="translate(128,190)"/>
<path d="M0 0 C0 0.66 0 1.32 0 2 C1.32 2 2.64 2 4 2 C4 2.66 4 3.32 4 4 C1.6568787 3.74438677 -0.67843403 3.40729228 -3 3 C-3.33 2.34 -3.66 1.68 -4 1 C-2 0 -2 0 0 0 Z " fill="#DFF5F5" transform="translate(88,180)"/>
<path d="M0 0 C-3.96 1.98 -3.96 1.98 -8 4 C-7.67 2.68 -7.34 1.36 -7 0 C-4 -1 -4 -1 0 0 Z " fill="#DDF3FB" transform="translate(170,85)"/>
<path d="M0 0 C0.33 0.99 0.66 1.98 1 3 C-1.35438733 4.42944945 -2.48032433 5.08661261 -5.25 4.625 C-5.8275 4.41875 -6.405 4.2125 -7 4 C-4.69 2.68 -2.38 1.36 0 0 Z " fill="#D2EAF9" transform="translate(151,55)"/>
</svg>
