<svg width="101" height="101" viewBox="0 0 101 101" fill="none" xmlns="http://www.w3.org/2000/svg">
<path fill-rule="evenodd" clip-rule="evenodd" d="M70.8832 12.5088C73.0949 12.5088 75.216 13.3874 76.7799 14.9513C78.3438 16.5152 79.2224 18.6363 79.2224 20.848V25.0176H83.392C84.4979 25.0176 85.5584 25.4569 86.3404 26.2388C87.1223 27.0208 87.5616 28.0813 87.5616 29.1872C87.5616 30.293 87.1223 31.3536 86.3404 32.1355C85.5584 32.9175 84.4979 33.3568 83.392 33.3568V79.2224C84.4979 79.2224 85.5584 79.6617 86.3404 80.4436C87.1223 81.2256 87.5616 82.2862 87.5616 83.392C87.5616 84.4979 87.1223 85.5584 86.3404 86.3404C85.5584 87.1223 84.4979 87.5616 83.392 87.5616H56.2896V68.7984C56.2896 67.1396 55.6307 65.5488 54.4577 64.3759C53.2848 63.2029 51.694 62.544 50.0352 62.544C48.3764 62.544 46.7856 63.2029 45.6127 64.3759C44.4397 65.5488 43.7808 67.1396 43.7808 68.7984V87.5616H16.6784C15.5725 87.5616 14.512 87.1223 13.73 86.3404C12.9481 85.5584 12.5088 84.4979 12.5088 83.392C12.5088 82.2862 12.9481 81.2256 13.73 80.4436C14.512 79.6617 15.5725 79.2224 16.6784 79.2224V33.3568C15.5725 33.3568 14.512 32.9175 13.73 32.1355C12.9481 31.3536 12.5088 30.293 12.5088 29.1872C12.5088 28.0813 12.9481 27.0208 13.73 26.2388C14.512 25.4569 15.5725 25.0176 16.6784 25.0176H20.848V20.848C20.848 18.6363 21.7266 16.5152 23.2905 14.9513C24.8544 13.3874 26.9755 12.5088 29.1872 12.5088H70.8832ZM33.3568 54.2048C32.2509 54.2048 31.1904 54.6441 30.4084 55.426C29.6265 56.208 29.1872 57.2686 29.1872 58.3744V62.544C29.1872 63.6498 29.6265 64.7104 30.4084 65.4924C31.1904 66.2743 32.2509 66.7136 33.3568 66.7136C34.4626 66.7136 35.5232 66.2743 36.3051 65.4924C37.0871 64.7104 37.5264 63.6498 37.5264 62.544V58.3744C37.5264 57.2686 37.0871 56.208 36.3051 55.426C35.5232 54.6441 34.4626 54.2048 33.3568 54.2048ZM66.7136 54.2048C65.6923 54.2049 64.7066 54.5799 63.9434 55.2585C63.1803 55.9372 62.6927 56.8723 62.5732 57.8866L62.544 58.3744V62.544C62.5452 63.6067 62.9521 64.6289 63.6817 65.4017C64.4112 66.1745 65.4083 66.6395 66.4692 66.7018C67.5302 66.7641 68.5748 66.4189 69.3898 65.7368C70.2047 65.0547 70.7285 64.0872 70.854 63.0318L70.8832 62.544V58.3744C70.8832 57.2686 70.4439 56.208 69.662 55.426C68.88 54.6441 67.8195 54.2048 66.7136 54.2048ZM33.3568 37.5264C32.3355 37.5265 31.3498 37.9015 30.5866 38.5801C29.8234 39.2588 29.3359 40.1939 29.2164 41.2082L29.1872 41.696V45.8656C29.1884 46.9283 29.5953 47.9505 30.3249 48.7233C31.0544 49.4961 32.0515 49.9611 33.1124 50.0234C34.1734 50.0857 35.218 49.7405 36.033 49.0584C36.8479 48.3763 37.3717 47.4087 37.4972 46.3534L37.5264 45.8656V41.696C37.5264 40.5901 37.0871 39.5296 36.3051 38.7476C35.5232 37.9657 34.4626 37.5264 33.3568 37.5264ZM50.0352 37.5264C49.0139 37.5265 48.0282 37.9015 47.265 38.5801C46.5018 39.2588 46.0143 40.1939 45.8948 41.2082L45.8656 41.696V45.8656C45.8668 46.9283 46.2737 47.9505 47.0033 48.7233C47.7328 49.4961 48.7299 49.9611 49.7908 50.0234C50.8518 50.0857 51.8964 49.7405 52.7114 49.0584C53.5263 48.3763 54.0501 47.4087 54.1756 46.3534L54.2048 45.8656V41.696C54.2048 40.5901 53.7655 39.5296 52.9836 38.7476C52.2016 37.9657 51.141 37.5264 50.0352 37.5264ZM66.7136 37.5264C65.6078 37.5264 64.5472 37.9657 63.7653 38.7476C62.9833 39.5296 62.544 40.5901 62.544 41.696V45.8656C62.544 46.9714 62.9833 48.032 63.7653 48.8139C64.5472 49.5959 65.6078 50.0352 66.7136 50.0352C67.8195 50.0352 68.88 49.5959 69.662 48.8139C70.4439 48.032 70.8832 46.9714 70.8832 45.8656V41.696C70.8832 40.5901 70.4439 39.5296 69.662 38.7476C68.88 37.9657 67.8195 37.5264 66.7136 37.5264ZM70.8832 20.848H29.1872V25.0176H70.8832V20.848Z" fill="black"/>
</svg>
