<svg width="49" height="49" viewBox="0 0 49 49" fill="none" xmlns="http://www.w3.org/2000/svg">
<path fill-rule="evenodd" clip-rule="evenodd" d="M32.6668 18.3749C32.6668 20.5409 31.8064 22.6181 30.2749 24.1496C28.7433 25.6812 26.6661 26.5416 24.5002 26.5416C22.3342 26.5416 20.257 25.6812 18.7255 24.1496C17.1939 22.6181 16.3335 20.5409 16.3335 18.3749C16.3335 16.209 17.1939 14.1318 18.7255 12.6002C20.257 11.0687 22.3342 10.2083 24.5002 10.2083C26.6661 10.2083 28.7433 11.0687 30.2749 12.6002C31.8064 14.1318 32.6668 16.209 32.6668 18.3749ZM28.5835 18.3749C28.5835 19.4579 28.1533 20.4965 27.3875 21.2623C26.6217 22.028 25.5831 22.4583 24.5002 22.4583C23.4172 22.4583 22.3786 22.028 21.6128 21.2623C20.847 20.4965 20.4168 19.4579 20.4168 18.3749C20.4168 17.292 20.847 16.2533 21.6128 15.4876C22.3786 14.7218 23.4172 14.2916 24.5002 14.2916C25.5831 14.2916 26.6217 14.7218 27.3875 15.4876C28.1533 16.2533 28.5835 17.292 28.5835 18.3749Z" fill="#3F72AF"/>
<path fill-rule="evenodd" clip-rule="evenodd" d="M24.5001 2.04163C12.097 2.04163 2.04175 12.0968 2.04175 24.5C2.04175 36.9031 12.097 46.9583 24.5001 46.9583C36.9032 46.9583 46.9584 36.9031 46.9584 24.5C46.9584 12.0968 36.9032 2.04163 24.5001 2.04163ZM6.12508 24.5C6.12508 28.767 7.58079 32.6952 10.0206 35.8149C11.7344 33.5652 13.945 31.742 16.4797 30.4876C19.0144 29.2332 21.8047 28.5815 24.6328 28.5833C27.4245 28.58 30.1801 29.2144 32.6895 30.4379C35.1988 31.6614 37.3956 33.4418 39.1123 35.6434C40.8813 33.3232 42.0724 30.6152 42.587 27.7433C43.1016 24.8715 42.925 21.9183 42.0717 19.1283C41.2184 16.3383 39.713 13.7915 37.68 11.6988C35.6471 9.60606 33.145 8.02751 30.3809 7.09375C27.6167 6.15999 24.6699 5.89787 21.7844 6.32907C18.8988 6.76027 16.1574 7.8724 13.787 9.57344C11.4166 11.2745 9.48528 13.5155 8.15292 16.1112C6.82057 18.7068 6.12545 21.5824 6.12508 24.5ZM24.5001 42.875C20.2818 42.8818 16.1908 41.4306 12.9197 38.7671C14.2362 36.8819 15.9888 35.3427 18.0282 34.2805C20.0675 33.2183 22.3334 32.6646 24.6328 32.6666C26.9035 32.6646 29.1419 33.2045 31.162 34.2414C33.1821 35.2783 34.9257 36.7822 36.2478 38.6283C32.9515 41.3784 28.793 42.8817 24.5001 42.875Z" fill="#3F72AF"/>
</svg>
