<svg width="101" height="101" viewBox="0 0 101 101" fill="none" xmlns="http://www.w3.org/2000/svg">
<path d="M75.3865 62.5856H75.053C74.2607 62.5856 73.6353 62.6273 73.0516 62.7107C69.1738 63.0443 66.7555 64.1284 64.8374 65.0874C62.9194 66.0464 61.5435 66.7135 58.3746 66.7135C55.2057 66.7135 53.8297 66.0047 51.9117 65.0874C49.6601 63.9616 46.8665 62.5439 41.6962 62.5439C36.5259 62.5439 33.7322 63.9616 31.4806 65.0874C29.5626 66.0464 28.1867 66.7135 25.0178 66.7135C21.8489 66.7135 20.4729 66.0047 18.5549 65.0874C16.3033 63.9616 13.5097 62.5439 8.33936 62.5439V70.8831C11.5083 70.8831 12.8842 71.592 14.8022 72.5093C17.0538 73.6351 19.8475 75.0527 25.0178 75.0527C30.1881 75.0527 32.9817 73.6351 35.2333 72.5093C37.1513 71.5503 38.5273 70.8831 41.6962 70.8831C44.8651 70.8831 46.241 71.592 48.159 72.5093C50.4106 73.6351 53.2043 75.0527 58.3746 75.0527C63.5449 75.0527 66.3385 73.6351 68.5901 72.5093C70.5081 71.5503 71.8841 70.8831 75.0947 70.8831C78.3053 70.8831 79.6812 71.592 81.5575 72.5093C83.8091 73.6351 86.6028 75.0527 91.7731 75.0527V66.7135C88.6042 66.7135 87.1865 66.0047 85.3102 65.0874C83.1003 64.0033 80.3484 62.669 75.4282 62.5856H75.3865ZM75.053 79.2223C69.8827 79.2223 67.089 80.64 64.8374 81.7658C62.9194 82.7248 61.5435 83.3919 58.3746 83.3919C55.2057 83.3919 53.8297 82.6831 51.9117 81.7658C49.6601 80.64 46.8665 79.2223 41.6962 79.2223C36.5259 79.2223 33.7322 80.64 31.4806 81.7658C29.5626 82.7248 28.1867 83.3919 25.0178 83.3919C21.8489 83.3919 20.4729 82.6831 18.5549 81.7658C16.3033 80.64 13.5097 79.2223 8.33936 79.2223V87.5615C11.5083 87.5615 12.8842 88.2704 14.8022 89.1877C17.0538 90.3135 19.8475 91.7311 25.0178 91.7311C30.1881 91.7311 32.9817 90.3135 35.2333 89.1877C37.1513 88.2287 38.5273 87.5615 41.6962 87.5615C44.8651 87.5615 46.241 88.2704 48.159 89.1877C50.4106 90.3135 53.2043 91.7311 58.3746 91.7311C63.5449 91.7311 66.3385 90.3135 68.5901 89.1877C70.5081 88.2287 71.8841 87.5615 75.0947 87.5615C78.3053 87.5615 79.6812 88.2704 81.5575 89.1877C83.8091 90.3135 86.6028 91.7311 91.7731 91.7311V83.3919C88.6042 83.3919 87.1865 82.6831 85.3102 81.7658C83.0586 80.64 80.265 79.2223 75.0947 79.2223H75.053ZM22.9747 58.2492C23.5584 58.3326 24.2255 58.3743 24.9761 58.3743C28.145 58.3743 29.5209 57.6655 31.4389 56.7482C33.6905 55.6224 36.4842 54.2047 41.6545 54.2047C46.8248 54.2047 49.6184 55.6224 51.87 56.7482C53.788 57.7072 55.164 58.3743 58.3329 58.3743C61.5018 58.3743 62.9194 57.6655 64.7957 56.7482C67.0473 55.6224 69.841 54.2047 75.0113 54.2047C76.3455 54.2047 77.513 54.2881 78.5971 54.4549L83.1003 43.2387C83.5173 42.1963 83.4756 40.9871 83.0169 39.9864C82.7881 39.4711 82.4551 39.0088 82.0389 38.6285C81.6227 38.2482 81.1323 37.9581 80.5985 37.7765L75.0113 35.7751V16.6783C75.0113 14.385 73.1349 12.5087 70.8417 12.5087H54.1633V8.33911H45.8241V12.5087H29.1457C26.8524 12.5087 24.9761 14.385 24.9761 16.6783V35.7751L19.3888 37.7765C18.3047 38.1518 17.4708 38.944 16.9704 39.9864C16.5118 41.0288 16.4701 42.1963 16.887 43.2387L22.8913 58.2492H22.9747ZM33.357 20.8479H66.7138V32.8147L51.453 27.3525C50.5514 27.0207 49.561 27.0207 48.6594 27.3525L33.3987 32.8147V20.8479H33.357Z" fill="black"/>
</svg>
