<svg width="101" height="101" viewBox="0 0 101 101" fill="none" xmlns="http://www.w3.org/2000/svg">
<path d="M16.6785 64.6288V25.0175C16.6785 21.3344 17.6347 18.3976 19.5472 16.2072C21.4596 14.0167 23.9781 12.3489 27.1025 11.2037C30.2269 10.0584 33.7891 9.29398 37.7892 8.91038C41.7892 8.52677 45.8712 8.33636 50.0353 8.33914C54.6218 8.33914 58.9485 8.53094 63.0152 8.91455C67.082 9.29815 70.6262 10.0626 73.6477 11.2078C76.6693 12.3531 79.0488 14.0209 80.7861 16.2113C82.5234 18.4018 83.3921 21.3372 83.3921 25.0175V64.6288C83.3921 68.7289 81.9855 72.1869 79.1725 75.0027C76.3594 77.8186 72.9014 79.2251 68.7985 79.2224L75.0529 85.4768V87.5616H66.7137L58.3745 79.2224H41.6961L33.3569 87.5616H25.0177V85.4768L31.2721 79.2224C27.172 79.2224 23.714 77.8158 20.8981 75.0027C18.0822 72.1896 16.6757 68.7316 16.6785 64.6288ZM50.0353 16.6783C42.669 16.6783 37.2832 17.1134 33.8781 17.9834C30.4729 18.8535 28.1449 19.8083 26.894 20.8479H73.5935C72.5511 19.6666 70.3107 18.677 66.8721 17.8792C63.4336 17.0814 57.8213 16.6811 50.0353 16.6783ZM25.0177 41.6959H45.8657V29.1871H25.0177V41.6959ZM68.7985 50.0352H25.0177H75.0529H68.7985ZM54.2049 41.6959H75.0529V29.1871H54.2049V41.6959ZM39.924 64.9415C41.1054 63.7601 41.6961 62.266 41.6961 60.4592C41.6961 58.6523 41.1054 57.1582 39.924 55.9768C38.7426 54.7954 37.2485 54.2048 35.4417 54.2048C33.6348 54.2048 32.1407 54.7954 30.9594 55.9768C29.778 57.1582 29.1873 58.6523 29.1873 60.4592C29.1873 62.266 29.778 63.7601 30.9594 64.9415C32.1407 66.1229 33.6348 66.7136 35.4417 66.7136C37.2485 66.7136 38.7426 66.1229 39.924 64.9415ZM69.1112 64.9415C70.2926 63.7601 70.8833 62.266 70.8833 60.4592C70.8833 58.6523 70.2926 57.1582 69.1112 55.9768C67.9298 54.7954 66.4357 54.2048 64.6289 54.2048C62.8221 54.2048 61.3279 54.7954 60.1466 55.9768C58.9652 57.1582 58.3745 58.6523 58.3745 60.4592C58.3745 62.266 58.9652 63.7601 60.1466 64.9415C61.3279 66.1229 62.8221 66.7136 64.6289 66.7136C66.4357 66.7136 67.9298 66.1229 69.1112 64.9415ZM31.2721 70.8832H68.7985C70.6053 70.8832 72.0994 70.2925 73.2808 69.1111C74.4622 67.9297 75.0529 66.4356 75.0529 64.6288V50.0352H25.0177V64.6288C25.0177 66.4356 25.6084 67.9297 26.7898 69.1111C27.9711 70.2925 29.4652 70.8832 31.2721 70.8832ZM50.0353 20.8479H73.5935H26.894H50.0353Z" fill="black"/>
</svg>
